<?xml version="1.0" encoding="utf-8"?>
<!-- Generator: Adobe Illustrator 18.1.1, SVG Export Plug-In . SVG Version: 6.00 Build 0)  -->
<svg version="1.1" id="Layer_1" xmlns="http://www.w3.org/2000/svg" xmlns:xlink="http://www.w3.org/1999/xlink" x="0px" y="0px"
	 viewBox="0 0 5460.5 2689" enable-background="new 0 0 5460.5 2689" xml:space="preserve">
<g>
	<path d="M479,2030.3V524.8h319.4v1204.9h562.1v300.6H479z"/>
</g>
<g>
	<path d="M1545.3,500.7c43.1,0,80.1,15.4,110.8,46.1c30.7,30.7,46.1,67.3,46.1,109.5c0,46.8-17.6,85.5-52.9,116.3
		c-30.1,26.9-65.4,40.4-105.9,40.4c-44.5,0-82.2-15.4-113.2-46.1c-31.1-30.7-46.6-67.9-46.6-111.5c0-42.9,15.7-79.4,47.1-109.5
		C1462,515.8,1500.2,500.7,1545.3,500.7z M1388.8,941.5h312v1088.7h-312V941.5z"/>
</g>
<g>
	<path d="M2446.1,715.4c-45.2-9.1-73.8-9.8-112.2-9.8c-104,0-110.8,45.2-110.8,117.5v118.4H2429V1219h-205.9v811.3h-325.5v-811.5
		h-167.3V941.5h167.3V787c0-226.1,106.2-352.6,373-352.6c92.7,0,127.9,6.9,216,25L2446.1,715.4z"/>
</g>
<g>
	<path d="M2749.2,1582.7c5.4,171.8,124.8,235.1,282.1,235.1c100.4,0,189.9-18.1,252.3-36.2l48.8,212.5
		c-92.2,29.4-230.6,49.7-366.2,49.7c-360.8,0-558.8-198.9-558.8-544.8c0-370.7,230.6-592.3,531.7-592.3
		c284.8,0,450.3,187.6,450.3,522.2c0,79.1-2.7,122.1-10.8,153.7H2749.2z M3066.6,1374.7c0-142.4-43.4-253.2-149.2-253.2
		c-116.6,0-162.8,142.4-165.5,253.2H3066.6z"/>
</g>
<g>
	<path d="M3419,509.7h315v1520.5h-315V509.7z"/>
</g>
<g>
	<path d="M4118.9,964.9l152.2,542.5c16.2,63.7,36.9,144,50.1,205.7h6.3c14.6-58.8,31.3-142.4,45.9-205.7l125.1-542.5h339.9
		l-237.7,727.9c-146,438.5-244,614.9-358.7,725.6c-110.5,104-227.3,140.2-306.6,151.5l-66.7-291.6c39.6-6.8,89.7-27.1,137.6-58.8
		c48-27.1,100.1-81.4,131.4-137.9c10.4-15.8,16.7-33.9,16.7-49.7c0-11.3-2.1-29.4-14.6-56.5L3766.5,964.9H4118.9z"/>
</g>
<path d="M4928.3,1698.3c47.9,0,88.9,17.1,123,51.2c34.1,34.1,51.1,74.6,51.1,121.6c0,51.9-19.6,94.9-58.8,129
	c-33.4,29.9-72.6,44.8-117.5,44.8c-49.3,0-91.2-17.1-125.7-51.2c-34.5-34.1-51.7-75.3-51.7-123.7c0-47.6,17.4-88.1,52.2-121.6
	C4835.8,1715,4878.3,1698.3,4928.3,1698.3z"/>
<path fill="none" d="M2590.7,940.7"/>
<path fill="none" d="M1384.8,941.5"/>
<path fill="none" d="M1890.6,1322.3"/>
<path fill="none" d="M-70.9,924.6"/>
<path fill="none" d="M5172.5,958.5"/>
<path fill="none" d="M2711.5,1219"/>
<path fill="none" d="M1712.2,1219"/>
<line fill="none" x1="1369" y1="941.5" x2="2577.8" y2="941.5"/>
<line fill="none" x1="2223.1" y1="1302.8" x2="2223.1" y2="854"/>
<line fill="none" x1="1700.8" y1="1219" x2="2442.3" y2="1219"/>
<path fill="none" d="M1897.6,667"/>
<path fill="none" d="M1897.6,1293"/>
<line fill="none" x1="479" y1="524.8" x2="5229" y2="524.8"/>
<line fill="none" x1="1388.8" y1="951" x2="1388.8" y2="287"/>
<line fill="none" x1="1700.8" y1="1005" x2="1700.8" y2="323"/>
</svg>
